<mxfile host="app.diagrams.net" modified="2024-05-23T13:42:24.826Z" agent="Mozilla/5.0 (Windows NT 10.0; Win64; x64) AppleWebKit/537.36 (KHTML, like Gecko) Chrome/125.0.0.0 Safari/537.36" etag="64X7zl7IRdvFcvia2zz5" version="24.4.6" type="device">
  <diagram name="Página-1" id="H0bE9gB80t1YhXPXf1RE">
    <mxGraphModel dx="1434" dy="1138" grid="1" gridSize="10" guides="1" tooltips="1" connect="1" arrows="1" fold="1" page="0" pageScale="1" pageWidth="827" pageHeight="1169" math="0" shadow="0">
      <root>
        <mxCell id="0" />
        <mxCell id="1" parent="0" />
        <mxCell id="pCujRr_19Z160oxZ67RG-3" value="" style="edgeStyle=orthogonalEdgeStyle;rounded=0;orthogonalLoop=1;jettySize=auto;html=1;" edge="1" parent="1" source="pCujRr_19Z160oxZ67RG-1" target="pCujRr_19Z160oxZ67RG-2">
          <mxGeometry relative="1" as="geometry" />
        </mxCell>
        <mxCell id="pCujRr_19Z160oxZ67RG-1" value="INÍCIO" style="ellipse;whiteSpace=wrap;html=1;fillColor=#f8cecc;strokeColor=#b85450;" vertex="1" parent="1">
          <mxGeometry x="220" y="-120" width="120" height="80" as="geometry" />
        </mxCell>
        <mxCell id="pCujRr_19Z160oxZ67RG-6" value="" style="edgeStyle=orthogonalEdgeStyle;rounded=0;orthogonalLoop=1;jettySize=auto;html=1;" edge="1" parent="1" source="pCujRr_19Z160oxZ67RG-2">
          <mxGeometry relative="1" as="geometry">
            <mxPoint x="280" y="180" as="targetPoint" />
          </mxGeometry>
        </mxCell>
        <mxCell id="pCujRr_19Z160oxZ67RG-2" value="Verificação do estoque" style="rounded=1;whiteSpace=wrap;html=1;fillColor=#fff2cc;strokeColor=#d6b656;" vertex="1" parent="1">
          <mxGeometry x="220" y="50" width="120" height="60" as="geometry" />
        </mxCell>
        <mxCell id="pCujRr_19Z160oxZ67RG-8" value="não" style="edgeStyle=orthogonalEdgeStyle;rounded=0;orthogonalLoop=1;jettySize=auto;html=1;entryX=1;entryY=0.5;entryDx=0;entryDy=0;" edge="1" parent="1" source="pCujRr_19Z160oxZ67RG-4" target="pCujRr_19Z160oxZ67RG-15">
          <mxGeometry relative="1" as="geometry">
            <mxPoint x="520" y="550" as="targetPoint" />
            <Array as="points">
              <mxPoint x="440" y="220" />
              <mxPoint x="440" y="810" />
            </Array>
          </mxGeometry>
        </mxCell>
        <mxCell id="pCujRr_19Z160oxZ67RG-10" value="sim" style="edgeStyle=orthogonalEdgeStyle;rounded=0;orthogonalLoop=1;jettySize=auto;html=1;" edge="1" parent="1" source="pCujRr_19Z160oxZ67RG-4" target="pCujRr_19Z160oxZ67RG-9">
          <mxGeometry relative="1" as="geometry" />
        </mxCell>
        <mxCell id="pCujRr_19Z160oxZ67RG-4" value="&lt;div&gt;&lt;br&gt;&lt;/div&gt;Materiais em falta?" style="rhombus;whiteSpace=wrap;html=1;fillColor=#d5e8d4;strokeColor=#82b366;" vertex="1" parent="1">
          <mxGeometry x="240" y="180" width="80" height="80" as="geometry" />
        </mxCell>
        <mxCell id="pCujRr_19Z160oxZ67RG-12" value="" style="edgeStyle=orthogonalEdgeStyle;rounded=0;orthogonalLoop=1;jettySize=auto;html=1;" edge="1" parent="1" source="pCujRr_19Z160oxZ67RG-9" target="pCujRr_19Z160oxZ67RG-11">
          <mxGeometry relative="1" as="geometry" />
        </mxCell>
        <mxCell id="pCujRr_19Z160oxZ67RG-9" value="Listar materias" style="rounded=1;whiteSpace=wrap;html=1;" vertex="1" parent="1">
          <mxGeometry x="220" y="350" width="120" height="60" as="geometry" />
        </mxCell>
        <mxCell id="pCujRr_19Z160oxZ67RG-14" value="" style="edgeStyle=orthogonalEdgeStyle;rounded=0;orthogonalLoop=1;jettySize=auto;html=1;" edge="1" parent="1" source="pCujRr_19Z160oxZ67RG-11">
          <mxGeometry relative="1" as="geometry">
            <mxPoint x="280" y="630" as="targetPoint" />
          </mxGeometry>
        </mxCell>
        <mxCell id="pCujRr_19Z160oxZ67RG-11" value="fazer encomenda" style="rounded=1;whiteSpace=wrap;html=1;" vertex="1" parent="1">
          <mxGeometry x="220" y="490" width="120" height="60" as="geometry" />
        </mxCell>
        <mxCell id="pCujRr_19Z160oxZ67RG-15" value="FIM" style="ellipse;whiteSpace=wrap;html=1;fillColor=#f8cecc;strokeColor=#b85450;" vertex="1" parent="1">
          <mxGeometry x="220" y="770" width="120" height="80" as="geometry" />
        </mxCell>
        <mxCell id="pCujRr_19Z160oxZ67RG-17" value="" style="edgeStyle=orthogonalEdgeStyle;rounded=0;orthogonalLoop=1;jettySize=auto;html=1;" edge="1" parent="1" source="pCujRr_19Z160oxZ67RG-16" target="pCujRr_19Z160oxZ67RG-15">
          <mxGeometry relative="1" as="geometry" />
        </mxCell>
        <mxCell id="pCujRr_19Z160oxZ67RG-16" value="Atualizar estoque" style="rounded=1;whiteSpace=wrap;html=1;" vertex="1" parent="1">
          <mxGeometry x="220" y="630" width="120" height="60" as="geometry" />
        </mxCell>
      </root>
    </mxGraphModel>
  </diagram>
</mxfile>
